<svg width="108" height="32" viewBox="0 0 108 51" fill="none" xmlns="http://www.w3.org/2000/svg">
<g filter="url(#filter0_ddddd_18_42)">
<rect x="5" y="1" width="108" height="32" rx="16" fill="white"/>
<rect x="5.5" y="1.5" width="107" height="31" rx="15.5" stroke="#333333"/>
<path d="M38.8082 21L35.9642 16.908L37.2242 16.128L40.5722 21H38.8082ZM33.2522 21V12.6H34.7882V21H33.2522ZM34.3202 17.46V16.116H37.1522V17.46H34.3202ZM37.3682 16.98L35.9402 16.788L38.8082 12.6H40.4642L37.3682 16.98ZM45.4331 21V19.704L45.3491 19.428V17.16C45.3491 16.72 45.2171 16.38 44.9531 16.14C44.6891 15.892 44.2891 15.768 43.7531 15.768C43.3931 15.768 43.0371 15.824 42.6851 15.936C42.3411 16.048 42.0491 16.204 41.8091 16.404L41.2211 15.312C41.5651 15.048 41.9731 14.852 42.4451 14.724C42.9251 14.588 43.4211 14.52 43.9331 14.52C44.8611 14.52 45.5771 14.744 46.0811 15.192C46.5931 15.632 46.8491 16.316 46.8491 17.244V21H45.4331ZM43.4171 21.084C42.9371 21.084 42.5171 21.004 42.1571 20.844C41.7971 20.676 41.5171 20.448 41.3171 20.16C41.1251 19.864 41.0291 19.532 41.0291 19.164C41.0291 18.804 41.1131 18.48 41.2811 18.192C41.4571 17.904 41.7411 17.676 42.1331 17.508C42.5251 17.34 43.0451 17.256 43.6931 17.256H45.5531V18.252H43.8011C43.2891 18.252 42.9451 18.336 42.7691 18.504C42.5931 18.664 42.5051 18.864 42.5051 19.104C42.5051 19.376 42.6131 19.592 42.8291 19.752C43.0451 19.912 43.3451 19.992 43.7291 19.992C44.0971 19.992 44.4251 19.908 44.7131 19.74C45.0091 19.572 45.2211 19.324 45.3491 18.996L45.6011 19.896C45.4571 20.272 45.1971 20.564 44.8211 20.772C44.4531 20.98 43.9851 21.084 43.4171 21.084ZM51.7653 21.12C51.2373 21.12 50.7653 21.04 50.3493 20.88C49.9333 20.72 49.5733 20.476 49.2693 20.148C48.9733 19.812 48.7453 19.388 48.5853 18.876C48.4253 18.364 48.3453 17.756 48.3453 17.052C48.3453 16.54 48.3893 16.072 48.4773 15.648C48.5653 15.224 48.6973 14.844 48.8733 14.508C49.0493 14.164 49.2693 13.86 49.5333 13.596C49.8053 13.332 50.1213 13.112 50.4813 12.936C50.8413 12.76 51.2493 12.624 51.7053 12.528L54.6813 11.892L54.8973 13.236L52.1973 13.788C52.0453 13.82 51.8613 13.868 51.6453 13.932C51.4373 13.988 51.2213 14.076 50.9973 14.196C50.7813 14.308 50.5773 14.472 50.3853 14.688C50.2013 14.896 50.0493 15.168 49.9293 15.504C49.8173 15.832 49.7613 16.244 49.7613 16.74C49.7613 16.892 49.7653 17.008 49.7733 17.088C49.7893 17.16 49.8013 17.24 49.8093 17.328C49.8253 17.408 49.8333 17.528 49.8333 17.688L49.2693 17.1C49.4293 16.692 49.6493 16.344 49.9293 16.056C50.2173 15.76 50.5493 15.536 50.9253 15.384C51.3093 15.224 51.7253 15.144 52.1733 15.144C52.7733 15.144 53.3053 15.268 53.7693 15.516C54.2333 15.764 54.5973 16.112 54.8613 16.56C55.1253 17.008 55.2573 17.516 55.2573 18.084C55.2573 18.676 55.1133 19.2 54.8253 19.656C54.5373 20.112 54.1293 20.472 53.6013 20.736C53.0813 20.992 52.4693 21.12 51.7653 21.12ZM51.8853 19.908C52.2453 19.908 52.5613 19.832 52.8333 19.68C53.1133 19.52 53.3293 19.304 53.4813 19.032C53.6413 18.76 53.7213 18.456 53.7213 18.12C53.7213 17.784 53.6413 17.492 53.4813 17.244C53.3293 16.988 53.1133 16.784 52.8333 16.632C52.5613 16.48 52.2373 16.404 51.8613 16.404C51.5013 16.404 51.1773 16.476 50.8893 16.62C50.6093 16.764 50.3893 16.964 50.2293 17.22C50.0773 17.468 50.0013 17.756 50.0013 18.084C50.0013 18.42 50.0813 18.728 50.2413 19.008C50.4013 19.288 50.6213 19.508 50.9013 19.668C51.1893 19.828 51.5173 19.908 51.8853 19.908ZM56.7092 21V14.592H58.2092V18.816L61.7492 14.592H63.1172V21H61.6172V16.776L58.0892 21H56.7092ZM65.135 21V14.592H66.635V17.196H69.863V14.592H71.363V21H69.863V18.468H66.635V21H65.135ZM76.3612 21.084C75.6492 21.084 75.0252 20.944 74.4892 20.664C73.9612 20.376 73.5492 19.984 73.2532 19.488C72.9652 18.992 72.8212 18.428 72.8212 17.796C72.8212 17.156 72.9612 16.592 73.2412 16.104C73.5292 15.608 73.9212 15.22 74.4172 14.94C74.9212 14.66 75.4932 14.52 76.1332 14.52C76.7572 14.52 77.3132 14.656 77.8012 14.928C78.2892 15.2 78.6732 15.584 78.9532 16.08C79.2332 16.576 79.3732 17.16 79.3732 17.832C79.3732 17.896 79.3692 17.968 79.3612 18.048C79.3612 18.128 79.3572 18.204 79.3492 18.276H74.0092V17.28H78.5572L77.9692 17.592C77.9772 17.224 77.9012 16.9 77.7412 16.62C77.5812 16.34 77.3612 16.12 77.0812 15.96C76.8092 15.8 76.4932 15.72 76.1332 15.72C75.7652 15.72 75.4412 15.8 75.1612 15.96C74.8892 16.12 74.6732 16.344 74.5132 16.632C74.3612 16.912 74.2852 17.244 74.2852 17.628V17.868C74.2852 18.252 74.3732 18.592 74.5492 18.888C74.7252 19.184 74.9732 19.412 75.2932 19.572C75.6132 19.732 75.9812 19.812 76.3972 19.812C76.7572 19.812 77.0812 19.756 77.3692 19.644C77.6572 19.532 77.9132 19.356 78.1372 19.116L78.9412 20.04C78.6532 20.376 78.2892 20.636 77.8492 20.82C77.4172 20.996 76.9212 21.084 76.3612 21.084ZM82.0998 21V15.504L82.4478 15.864H79.8438V14.592H85.8438V15.864H83.2518L83.5998 15.504V21H82.0998Z" fill="#333333"/>
</g>
<defs>
<filter id="filter0_ddddd_18_42" x="0" y="0" width="108" height="32" filterUnits="userSpaceOnUse" color-interpolation-filters="sRGB">
<feColorMatrix in="SourceAlpha" type="matrix" values="0 0 0 0 0 0 0 0 0 0 0 0 0 0 0 0 0 0 127 0" result="hardAlpha"/>
<feColorMatrix type="matrix" values="0 0 0 0 0 0 0 0 0 0 0 0 0 0 0 0 0 0 0.01 0"/>
<feBlend mode="normal" in2="effect4_dropShadow_18_42" result="effect5_dropShadow_18_42"/>
<feBlend mode="normal" in="SourceGraphic" in2="effect5_dropShadow_18_42" result="shape"/>
</filter>
</defs>
</svg>
