<svg width="178" height="46" viewBox="0 0 178 46" fill="none" xmlns="http://www.w3.org/2000/svg">
<path d="M11.3063 28.5H9.42074V19.4336H2.88556V28.5H1V17.7148H11.3063V28.5Z" fill="#333333"/>
<path d="M16.4916 32.9043H14.606V17.7148H16.4916V19.3262H16.5773C16.7059 19.1257 16.9094 18.9108 17.188 18.6816C17.438 18.4811 17.7058 18.2985 17.9915 18.1338C18.2986 17.9619 18.6986 17.8151 19.1914 17.6934C19.6913 17.5645 20.1949 17.5 20.702 17.5C22.3233 17.5 23.6803 18.0156 24.7731 19.0469C25.8587 20.0924 26.4015 21.446 26.4015 23.1074C26.4015 24.7832 25.8587 26.1367 24.7731 27.168C23.6803 28.1992 22.3233 28.7148 20.702 28.7148C19.5878 28.7148 18.6807 28.5 17.9808 28.0703C17.3665 27.6908 16.9487 27.3649 16.7273 27.0928L16.5773 26.8887H16.4916V32.9043ZM23.391 25.8682C24.1124 25.1449 24.4731 24.2246 24.4731 23.1074C24.4731 22.0046 24.1124 21.0843 23.391 20.3467C22.6554 19.6234 21.684 19.2617 20.477 19.2617C19.2628 19.2617 18.295 19.6234 17.5737 20.3467C16.8523 21.0843 16.4916 22.0046 16.4916 23.1074C16.4916 24.2533 16.863 25.1807 17.6058 25.8896C18.3414 26.6058 19.2985 26.9639 20.477 26.9639C21.6912 26.9639 22.6625 26.5986 23.391 25.8682Z" fill="#333333"/>
<path d="M30.494 27.1787C29.3798 26.1546 28.8227 24.7975 28.8227 23.1074C28.8227 21.4245 29.3798 20.0674 30.494 19.0361C31.6011 18.012 33.0117 17.5 34.7258 17.5C36.4257 17.5 37.8363 18.012 38.9576 19.0361C40.0647 20.0674 40.6182 21.4245 40.6182 23.1074C40.6182 24.7975 40.0647 26.1546 38.9576 27.1787C37.8363 28.2028 36.4257 28.7148 34.7258 28.7148C33.0117 28.7148 31.6011 28.2028 30.494 27.1787ZM37.6077 25.8789C38.3291 25.1556 38.6898 24.2318 38.6898 23.1074C38.6898 21.9831 38.3291 21.0592 37.6077 20.3359C36.8864 19.6198 35.9257 19.2617 34.7258 19.2617C33.5188 19.2617 32.5582 19.6198 31.8439 20.3359C31.1154 21.0521 30.7512 21.9759 30.7512 23.1074C30.7512 24.2389 31.1154 25.1628 31.8439 25.8789C32.5653 26.6022 33.5259 26.9639 34.7258 26.9639C35.9115 26.9639 36.8721 26.6022 37.6077 25.8789Z" fill="#333333"/>
<path d="M80.2364 28.5H77.7402L71.6871 23.1289V28.5H69.8016V17.7148H71.6871V22.9785L77.3652 17.7148H79.8293L74.0762 23.0215L80.2364 28.5Z" fill="#333333"/>
<path d="M83.7719 32.9043H81.8863V17.7148H83.7719V19.3262H83.8576C83.9861 19.1257 84.1897 18.9108 84.4682 18.6816C84.7182 18.4811 84.986 18.2985 85.2717 18.1338C85.5788 17.9619 85.9788 17.8151 86.4716 17.6934C86.9716 17.5645 87.4751 17.5 87.9822 17.5C89.6035 17.5 90.9606 18.0156 92.0533 19.0469C93.139 20.0924 93.6818 21.446 93.6818 23.1074C93.6818 24.7832 93.139 26.1367 92.0533 27.168C90.9606 28.1992 89.6035 28.7148 87.9822 28.7148C86.868 28.7148 85.961 28.5 85.261 28.0703C84.6468 27.6908 84.229 27.3649 84.0076 27.0928L83.8576 26.8887H83.7719V32.9043ZM90.6713 25.8682C91.3927 25.1449 91.7533 24.2246 91.7533 23.1074C91.7533 22.0046 91.3927 21.0843 90.6713 20.3467C89.9356 19.6234 88.9643 19.2617 87.7572 19.2617C86.5431 19.2617 85.5753 19.6234 84.8539 20.3467C84.1325 21.0843 83.7719 22.0046 83.7719 23.1074C83.7719 24.2533 84.1433 25.1807 84.8861 25.8896C85.6217 26.6058 86.5788 26.9639 87.7572 26.9639C88.9714 26.9639 89.9428 26.5986 90.6713 25.8682Z" fill="#333333"/>
<path d="M96.103 25.4814C96.103 24.3786 96.5708 23.5622 97.5065 23.0322C98.435 22.5094 99.6277 22.248 101.085 22.248C101.828 22.248 102.513 22.3376 103.142 22.5166C103.799 22.7028 104.259 22.8783 104.524 23.043L104.942 23.3115V21.6143C104.942 20.8838 104.674 20.3109 104.138 19.8955C103.602 19.473 102.795 19.2617 101.717 19.2617C99.567 19.2617 98.4921 19.849 98.4921 21.0234H96.6065C96.6137 19.8346 97.0958 18.9502 98.0528 18.3701C99.0028 17.79 100.224 17.5 101.717 17.5C103.217 17.5 104.442 17.8509 105.392 18.5527C106.341 19.2617 106.82 20.2822 106.827 21.6143V25.5352C106.827 26.0794 106.899 26.459 107.041 26.6738C107.184 26.8815 107.42 26.9854 107.748 26.9854C108.034 26.9854 108.223 26.946 108.316 26.8672L108.359 26.8457V28.543C108.138 28.6576 107.816 28.7148 107.395 28.7148C106.681 28.7148 106.152 28.5609 105.809 28.2529C105.538 28.0238 105.338 27.7839 105.209 27.5332L105.156 27.4043H105.07C104.892 27.5833 104.709 27.7337 104.524 27.8555C104.302 28.0059 104.06 28.1383 103.795 28.2529C103.095 28.5609 102.242 28.7148 101.235 28.7148C99.7134 28.7148 98.4778 28.4535 97.5279 27.9307C96.578 27.415 96.103 26.5986 96.103 25.4814ZM101.513 24.0098C99.192 24.0098 98.0314 24.5003 98.0314 25.4814C98.0314 26.4697 99.192 26.9639 101.513 26.9639C102.199 26.9639 102.824 26.8887 103.388 26.7383C103.945 26.6022 104.327 26.4733 104.534 26.3516C104.727 26.2513 104.863 26.1618 104.942 26.083V24.8477C104.863 24.7689 104.727 24.6794 104.534 24.5791C104.292 24.4645 103.913 24.3428 103.399 24.2139C102.849 24.0778 102.22 24.0098 101.513 24.0098Z" fill="#333333"/>
<path d="M111.68 27.1572C110.566 26.1331 110.009 24.776 110.009 23.0859C110.009 21.3958 110.566 20.0423 111.68 19.0254C112.78 18.0085 114.191 17.5 115.912 17.5C116.891 17.5 117.766 17.6647 118.537 17.9941C119.33 18.3307 119.93 18.7354 120.337 19.208C121.187 20.1891 121.612 21.0879 121.612 21.9043H119.662C119.59 21.5964 119.469 21.292 119.298 20.9912C119.119 20.6833 118.912 20.4147 118.676 20.1855C118.405 19.9277 118.023 19.7093 117.53 19.5303C117.044 19.3512 116.505 19.2617 115.912 19.2617C114.705 19.2617 113.744 19.6198 113.03 20.3359C112.302 21.0521 111.937 21.9688 111.937 23.0859C111.937 24.2031 112.302 25.1234 113.03 25.8467C113.752 26.5771 114.712 26.9424 115.912 26.9424C116.512 26.9424 117.055 26.8529 117.541 26.6738C118.033 26.4948 118.412 26.2692 118.676 25.9971C119.169 25.4886 119.476 25.016 119.598 24.5791L119.662 24.2998H121.612C121.612 25.1019 121.187 25.9935 120.337 26.9746C119.915 27.4616 119.315 27.8698 118.537 28.1992C117.766 28.5286 116.891 28.6934 115.912 28.6934C114.198 28.6934 112.787 28.1813 111.68 27.1572Z" fill="#333333"/>
<path d="M134.971 28.5H133.075V19.874H133.032L126.851 28.5H124.461V17.7148H126.347V26.3408H126.39L132.571 17.7148H134.971V28.5Z" fill="#333333"/>
<path d="M147.87 20.6045C147.87 20.9554 147.813 21.2777 147.699 21.5713C147.585 21.8577 147.442 22.0726 147.27 22.2158C146.892 22.5238 146.57 22.6956 146.306 22.7314L146.135 22.7852V22.8926C146.299 22.8926 146.581 22.9642 146.981 23.1074C147.252 23.2077 147.502 23.3438 147.731 23.5156C147.967 23.709 148.163 23.9775 148.32 24.3213C148.484 24.6579 148.567 25.0374 148.567 25.46C148.567 26.4912 148.206 27.2575 147.485 27.7588C146.763 28.2529 145.663 28.5 144.185 28.5H138.26V17.7148H143.724C145.031 17.7148 146.049 17.9619 146.777 18.4561C147.506 18.9502 147.87 19.6663 147.87 20.6045ZM146.638 25.3311C146.638 24.3356 145.82 23.8379 144.185 23.8379H140.146V26.8457H144.185C145.82 26.8457 146.638 26.3408 146.638 25.3311ZM145.931 20.7979C145.931 19.8454 145.195 19.3691 143.724 19.3691H140.146V22.2695H143.938C144.588 22.2552 145.081 22.1156 145.417 21.8506C145.76 21.5856 145.931 21.2347 145.931 20.7979Z" fill="#333333"/>
<path d="M152.648 27.1787C151.534 26.1546 150.977 24.7975 150.977 23.1074C150.977 21.4245 151.534 20.0674 152.648 19.0361C153.755 18.012 155.166 17.5 156.88 17.5C158.58 17.5 159.991 18.012 161.112 19.0361C162.219 20.0674 162.773 21.4245 162.773 23.1074C162.773 24.7975 162.219 26.1546 161.112 27.1787C159.991 28.2028 158.58 28.7148 156.88 28.7148C155.166 28.7148 153.755 28.2028 152.648 27.1787ZM159.762 25.8789C160.483 25.1556 160.844 24.2318 160.844 23.1074C160.844 21.9831 160.483 21.0592 159.762 20.3359C159.041 19.6198 158.08 19.2617 156.88 19.2617C155.673 19.2617 154.713 19.6198 153.998 20.3359C153.27 21.0521 152.906 21.9759 152.906 23.1074C152.906 24.2389 153.27 25.1628 153.998 25.8789C154.72 26.6022 155.68 26.9639 156.88 26.9639C158.066 26.9639 159.026 26.6022 159.762 25.8789Z" fill="#333333"/>
<path d="M177 23.1074L176.936 24.0098H167.219C167.219 24.6257 167.583 25.2702 168.311 25.9434C169.033 26.6237 170.001 26.9639 171.215 26.9639C172.108 26.9639 172.84 26.7956 173.411 26.459C173.882 26.1725 174.211 25.9147 174.397 25.6855L174.482 25.5352H176.7C176.657 25.6426 176.611 25.7536 176.561 25.8682C176.468 26.0329 176.293 26.2871 176.036 26.6309C175.757 26.9961 175.432 27.3219 175.061 27.6084C174.704 27.8877 174.179 28.1419 173.486 28.3711C172.829 28.6003 172.072 28.7148 171.215 28.7148C169.436 28.7148 167.994 28.2064 166.887 27.1895C165.765 26.1725 165.205 24.8118 165.205 23.1074C165.205 21.4173 165.762 20.0602 166.876 19.0361C167.983 18.012 169.393 17.5 171.108 17.5C172.807 17.5 174.218 18.012 175.339 19.0361C176.446 20.0602 177 21.4173 177 23.1074ZM173.957 20.2822C173.243 19.6019 172.293 19.2617 171.108 19.2617C169.908 19.2617 168.958 19.6019 168.258 20.2822C167.551 20.9626 167.197 21.6322 167.197 22.291H175.007C175.007 21.6322 174.657 20.9626 173.957 20.2822Z" fill="#333333"/>
<path fill-rule="evenodd" clip-rule="evenodd" d="M55.0644 25.1479L54.1341 26.4932C54.1341 26.4932 53.9274 25.9758 53.7206 25.5619C53.5139 25.1479 53.2038 24.734 52.8937 24.2166C52.5836 23.6992 52.1701 22.9749 51.86 22.4575C51.5499 21.9401 51.3431 21.5262 51.2398 21.0088C51.1364 20.4914 51.033 19.6636 50.9297 18.6288C50.8263 17.594 50.7229 16.2487 50.6195 15.007C50.5162 13.7653 50.3094 12.5235 49.9993 11.0748C49.7926 9.62609 49.3791 8.0739 49.069 6.72867C48.7589 5.38344 48.4488 4.24517 48.0353 3.41734C47.7252 2.58951 47.3117 1.86516 47.0016 1.45124C46.6915 1.03732 46.4848 0.933844 46.278 1.03732C46.0713 1.03732 45.9679 1.24428 45.8645 1.6582C45.7612 2.07211 45.6578 2.79647 45.6578 3.72778C45.6578 4.65909 45.6578 6.00432 45.8645 7.34955C46.0713 8.69477 46.3814 10.247 46.6915 11.7991C47.105 13.3513 47.5185 14.8 48.0353 16.0418C48.5522 17.2835 48.9656 18.3183 49.2757 18.9392C49.4825 19.5601 49.4825 19.6636 49.4825 21.1123C49.4825 22.561 49.4825 25.4584 49.3791 27.7349C49.2757 30.0115 49.1724 31.5637 48.8623 33.3228C48.5522 35.0819 48.0353 37.048 47.6218 38.6002C47.105 40.2559 46.6915 41.6011 46.3814 42.3255C46.1747 43.0498 46.1747 43.2568 46.3814 43.6707C46.5881 44.0846 47.0016 44.602 47.2084 44.809C47.4151 45.1194 47.5185 45.1194 47.8286 44.2916C48.1387 43.5672 48.7589 42.015 49.2757 40.5663C49.896 39.1176 50.4128 37.6689 51.1364 36.2202C51.86 34.7715 52.5836 33.2193 53.3072 32.081C54.0307 30.8393 54.5476 29.908 54.8577 29.4941C55.1678 29.0802 55.2712 29.0802 55.3745 29.1836C55.4779 29.2871 55.5813 29.4941 55.8914 29.908C56.2015 30.3219 56.615 30.8393 57.2352 31.4602C57.8554 32.081 58.4756 32.8054 59.7161 33.8402C60.9565 34.875 62.7138 36.3237 64.2643 37.3585C65.8149 38.3933 67.0553 39.1176 68.6059 39.7385C70.1564 40.3594 72.1204 40.9802 74.0844 41.3942C76.0485 41.8081 78.1159 41.9116 79.7698 41.9116C81.4237 41.9116 82.5608 41.7046 83.6978 41.3942C84.8349 41.0837 86.0753 40.7733 87.4191 40.0489C88.7629 39.4281 90.1068 38.2898 91.6573 37.462C109.333 27.9419 107.783 33.1158 126.803 39.635C134.969 42.429 143.135 44.0846 151.612 42.5324C153.369 42.222 153.472 42.1185 153.472 42.015C153.472 41.9116 153.472 41.8081 153.369 41.4976C153.266 41.1872 152.955 40.6698 152.852 40.3594C152.645 40.0489 152.645 39.9455 149.648 40.1524C146.753 40.4629 144.893 40.7733 139.724 40.2559C134.452 39.842 129.801 38.2898 125.666 36.3237C92.8977 21.5262 100.547 38.0828 77.8058 39.2211C75.7384 39.3246 74.0845 39.2211 72.0171 38.7037C69.9497 38.1863 67.5722 37.255 65.7115 36.3237C63.8509 35.3924 62.3003 34.2541 60.9565 33.1158C59.5093 31.9776 58.1655 30.7358 57.4419 29.908C56.615 29.0802 56.3049 28.7697 56.2015 28.4593C56.0981 28.2523 56.0981 28.0454 56.8217 26.8036C57.6487 25.5619 59.1992 23.2853 61.2666 20.9053C63.2306 18.5253 65.7115 16.0418 67.7789 14.1792C69.8463 12.3165 71.6036 10.9713 73.4642 9.62609C75.2215 8.38434 80.2866 4.86605 81.1136 4.1417C81.9405 3.41734 81.7338 3.21038 81.4237 2.79647C81.1136 2.38255 80.5967 1.86516 80.39 1.6582C80.0799 1.45124 79.9765 1.55472 78.7361 2.38255C77.4957 3.21038 72.0171 7.14259 69.8463 8.90173C67.6755 10.6609 65.7115 12.5235 63.8509 14.4896C61.9902 16.4557 60.1296 18.4218 58.579 20.3879C57.0285 22.354 55.0644 25.1479 55.0644 25.1479ZM51.1364 24.0097C51.1364 24.734 51.1364 26.0793 51.1364 27.114C51.1364 28.1488 51.1364 29.3906 51.1364 29.3906L51.1482 31.25L52.6869 28.8732L53.3072 27.7349C53.3072 27.7349 53.5139 27.321 53.4105 27.114C53.4105 27.114 52.5836 25.5619 52.3768 25.1479C52.1701 24.734 51.1364 23.1818 51.1364 23.1818C51.1364 23.1818 51.1364 23.2853 51.1364 24.0097ZM49.1724 15.3174C49.1724 14.6966 49.069 13.3513 48.9656 12.2131C48.8623 11.0748 48.6555 10.1435 48.4488 9.21217C48.242 8.28086 48.1387 7.45303 47.9319 6.72867C47.7252 5.90084 47.5185 5.17649 47.4151 4.86605C47.3117 4.45213 47.2084 4.45213 47.2084 4.76257C47.2084 5.07301 47.2084 5.69388 47.3117 6.72867C47.4151 7.76346 47.5185 9.10869 47.7252 10.247C47.9319 11.3852 48.1387 12.3165 48.3454 13.0409C48.5522 13.7653 48.6555 14.2826 48.7589 14.6966C48.8623 15.1105 48.9656 15.4209 49.069 15.6279C49.1724 15.8348 49.2757 15.9383 49.2757 15.3174H49.1724Z" fill="#333333"/>
<path d="M11.3063 28.5H9.42074V19.4336H2.88556V28.5H1V17.7148H11.3063V28.5Z" stroke="#4C4A5D" stroke-width="0.197857"/>
<path d="M16.4916 32.9043H14.606V17.7148H16.4916V19.3262H16.5773C16.7059 19.1257 16.9094 18.9108 17.188 18.6816C17.438 18.4811 17.7058 18.2985 17.9915 18.1338C18.2986 17.9619 18.6986 17.8151 19.1914 17.6934C19.6913 17.5645 20.1949 17.5 20.702 17.5C22.3233 17.5 23.6803 18.0156 24.7731 19.0469C25.8587 20.0924 26.4015 21.446 26.4015 23.1074C26.4015 24.7832 25.8587 26.1367 24.7731 27.168C23.6803 28.1992 22.3233 28.7148 20.702 28.7148C19.5878 28.7148 18.6807 28.5 17.9808 28.0703C17.3665 27.6908 16.9487 27.3649 16.7273 27.0928L16.5773 26.8887H16.4916V32.9043ZM23.391 25.8682C24.1124 25.1449 24.4731 24.2246 24.4731 23.1074C24.4731 22.0046 24.1124 21.0843 23.391 20.3467C22.6554 19.6234 21.684 19.2617 20.477 19.2617C19.2628 19.2617 18.295 19.6234 17.5737 20.3467C16.8523 21.0843 16.4916 22.0046 16.4916 23.1074C16.4916 24.2533 16.863 25.1807 17.6058 25.8896C18.3414 26.6058 19.2985 26.9639 20.477 26.9639C21.6912 26.9639 22.6625 26.5986 23.391 25.8682Z" stroke="#4C4A5D" stroke-width="0.197857"/>
<path d="M30.494 27.1787C29.3798 26.1546 28.8227 24.7975 28.8227 23.1074C28.8227 21.4245 29.3798 20.0674 30.494 19.0361C31.6011 18.012 33.0117 17.5 34.7258 17.5C36.4257 17.5 37.8363 18.012 38.9576 19.0361C40.0647 20.0674 40.6182 21.4245 40.6182 23.1074C40.6182 24.7975 40.0647 26.1546 38.9576 27.1787C37.8363 28.2028 36.4257 28.7148 34.7258 28.7148C33.0117 28.7148 31.6011 28.2028 30.494 27.1787ZM37.6077 25.8789C38.3291 25.1556 38.6898 24.2318 38.6898 23.1074C38.6898 21.9831 38.3291 21.0592 37.6077 20.3359C36.8864 19.6198 35.9257 19.2617 34.7258 19.2617C33.5188 19.2617 32.5582 19.6198 31.8439 20.3359C31.1154 21.0521 30.7512 21.9759 30.7512 23.1074C30.7512 24.2389 31.1154 25.1628 31.8439 25.8789C32.5653 26.6022 33.5259 26.9639 34.7258 26.9639C35.9115 26.9639 36.8721 26.6022 37.6077 25.8789Z" stroke="#4C4A5D" stroke-width="0.197857"/>
<path d="M80.2364 28.5H77.7402L71.6871 23.1289V28.5H69.8016V17.7148H71.6871V22.9785L77.3652 17.7148H79.8293L74.0762 23.0215L80.2364 28.5Z" stroke="#4C4A5D" stroke-width="0.197857"/>
<path d="M83.7719 32.9043H81.8863V17.7148H83.7719V19.3262H83.8576C83.9861 19.1257 84.1897 18.9108 84.4682 18.6816C84.7182 18.4811 84.986 18.2985 85.2717 18.1338C85.5788 17.9619 85.9788 17.8151 86.4716 17.6934C86.9716 17.5645 87.4751 17.5 87.9822 17.5C89.6035 17.5 90.9606 18.0156 92.0533 19.0469C93.139 20.0924 93.6818 21.446 93.6818 23.1074C93.6818 24.7832 93.139 26.1367 92.0533 27.168C90.9606 28.1992 89.6035 28.7148 87.9822 28.7148C86.868 28.7148 85.961 28.5 85.261 28.0703C84.6468 27.6908 84.229 27.3649 84.0076 27.0928L83.8576 26.8887H83.7719V32.9043ZM90.6713 25.8682C91.3927 25.1449 91.7533 24.2246 91.7533 23.1074C91.7533 22.0046 91.3927 21.0843 90.6713 20.3467C89.9356 19.6234 88.9643 19.2617 87.7572 19.2617C86.5431 19.2617 85.5753 19.6234 84.8539 20.3467C84.1325 21.0843 83.7719 22.0046 83.7719 23.1074C83.7719 24.2533 84.1433 25.1807 84.8861 25.8896C85.6217 26.6058 86.5788 26.9639 87.7572 26.9639C88.9714 26.9639 89.9428 26.5986 90.6713 25.8682Z" stroke="#4C4A5D" stroke-width="0.197857"/>
<path d="M96.103 25.4814C96.103 24.3786 96.5708 23.5622 97.5065 23.0322C98.435 22.5094 99.6277 22.248 101.085 22.248C101.828 22.248 102.513 22.3376 103.142 22.5166C103.799 22.7028 104.259 22.8783 104.524 23.043L104.942 23.3115V21.6143C104.942 20.8838 104.674 20.3109 104.138 19.8955C103.602 19.473 102.795 19.2617 101.717 19.2617C99.567 19.2617 98.4921 19.849 98.4921 21.0234H96.6065C96.6137 19.8346 97.0958 18.9502 98.0528 18.3701C99.0028 17.79 100.224 17.5 101.717 17.5C103.217 17.5 104.442 17.8509 105.392 18.5527C106.341 19.2617 106.82 20.2822 106.827 21.6143V25.5352C106.827 26.0794 106.899 26.459 107.041 26.6738C107.184 26.8815 107.42 26.9854 107.748 26.9854C108.034 26.9854 108.223 26.946 108.316 26.8672L108.359 26.8457V28.543C108.138 28.6576 107.816 28.7148 107.395 28.7148C106.681 28.7148 106.152 28.5609 105.809 28.2529C105.538 28.0238 105.338 27.7839 105.209 27.5332L105.156 27.4043H105.07C104.892 27.5833 104.709 27.7337 104.524 27.8555C104.302 28.0059 104.06 28.1383 103.795 28.2529C103.095 28.5609 102.242 28.7148 101.235 28.7148C99.7134 28.7148 98.4778 28.4535 97.5279 27.9307C96.578 27.415 96.103 26.5986 96.103 25.4814ZM101.513 24.0098C99.192 24.0098 98.0314 24.5003 98.0314 25.4814C98.0314 26.4697 99.192 26.9639 101.513 26.9639C102.199 26.9639 102.824 26.8887 103.388 26.7383C103.945 26.6022 104.327 26.4733 104.534 26.3516C104.727 26.2513 104.863 26.1618 104.942 26.083V24.8477C104.863 24.7689 104.727 24.6794 104.534 24.5791C104.292 24.4645 103.913 24.3428 103.399 24.2139C102.849 24.0778 102.22 24.0098 101.513 24.0098Z" stroke="#4C4A5D" stroke-width="0.197857"/>
<path d="M111.68 27.1572C110.566 26.1331 110.009 24.776 110.009 23.0859C110.009 21.3958 110.566 20.0423 111.68 19.0254C112.78 18.0085 114.191 17.5 115.912 17.5C116.891 17.5 117.766 17.6647 118.537 17.9941C119.33 18.3307 119.93 18.7354 120.337 19.208C121.187 20.1891 121.612 21.0879 121.612 21.9043H119.662C119.59 21.5964 119.469 21.292 119.298 20.9912C119.119 20.6833 118.912 20.4147 118.676 20.1855C118.405 19.9277 118.023 19.7093 117.53 19.5303C117.044 19.3512 116.505 19.2617 115.912 19.2617C114.705 19.2617 113.744 19.6198 113.03 20.3359C112.302 21.0521 111.937 21.9688 111.937 23.0859C111.937 24.2031 112.302 25.1234 113.03 25.8467C113.752 26.5771 114.712 26.9424 115.912 26.9424C116.512 26.9424 117.055 26.8529 117.541 26.6738C118.033 26.4948 118.412 26.2692 118.676 25.9971C119.169 25.4886 119.476 25.016 119.598 24.5791L119.662 24.2998H121.612C121.612 25.1019 121.187 25.9935 120.337 26.9746C119.915 27.4616 119.315 27.8698 118.537 28.1992C117.766 28.5286 116.891 28.6934 115.912 28.6934C114.198 28.6934 112.787 28.1813 111.68 27.1572Z" stroke="#4C4A5D" stroke-width="0.197857"/>
<path d="M134.971 28.5H133.075V19.874H133.032L126.851 28.5H124.461V17.7148H126.347V26.3408H126.39L132.571 17.7148H134.971V28.5Z" stroke="#4C4A5D" stroke-width="0.197857"/>
<path d="M147.87 20.6045C147.87 20.9554 147.813 21.2777 147.699 21.5713C147.585 21.8577 147.442 22.0726 147.27 22.2158C146.892 22.5238 146.57 22.6956 146.306 22.7314L146.135 22.7852V22.8926C146.299 22.8926 146.581 22.9642 146.981 23.1074C147.252 23.2077 147.502 23.3438 147.731 23.5156C147.967 23.709 148.163 23.9775 148.32 24.3213C148.484 24.6579 148.567 25.0374 148.567 25.46C148.567 26.4912 148.206 27.2575 147.485 27.7588C146.763 28.2529 145.663 28.5 144.185 28.5H138.26V17.7148H143.724C145.031 17.7148 146.049 17.9619 146.777 18.4561C147.506 18.9502 147.87 19.6663 147.87 20.6045ZM146.638 25.3311C146.638 24.3356 145.82 23.8379 144.185 23.8379H140.146V26.8457H144.185C145.82 26.8457 146.638 26.3408 146.638 25.3311ZM145.931 20.7979C145.931 19.8454 145.195 19.3691 143.724 19.3691H140.146V22.2695H143.938C144.588 22.2552 145.081 22.1156 145.417 21.8506C145.76 21.5856 145.931 21.2347 145.931 20.7979Z" stroke="#4C4A5D" stroke-width="0.197857"/>
<path d="M152.648 27.1787C151.534 26.1546 150.977 24.7975 150.977 23.1074C150.977 21.4245 151.534 20.0674 152.648 19.0361C153.755 18.012 155.166 17.5 156.88 17.5C158.58 17.5 159.991 18.012 161.112 19.0361C162.219 20.0674 162.773 21.4245 162.773 23.1074C162.773 24.7975 162.219 26.1546 161.112 27.1787C159.991 28.2028 158.58 28.7148 156.88 28.7148C155.166 28.7148 153.755 28.2028 152.648 27.1787ZM159.762 25.8789C160.483 25.1556 160.844 24.2318 160.844 23.1074C160.844 21.9831 160.483 21.0592 159.762 20.3359C159.041 19.6198 158.08 19.2617 156.88 19.2617C155.673 19.2617 154.713 19.6198 153.998 20.3359C153.27 21.0521 152.906 21.9759 152.906 23.1074C152.906 24.2389 153.27 25.1628 153.998 25.8789C154.72 26.6022 155.68 26.9639 156.88 26.9639C158.066 26.9639 159.026 26.6022 159.762 25.8789Z" stroke="#4C4A5D" stroke-width="0.197857"/>
<path d="M177 23.1074L176.936 24.0098H167.219C167.219 24.6257 167.583 25.2702 168.311 25.9434C169.033 26.6237 170.001 26.9639 171.215 26.9639C172.108 26.9639 172.84 26.7956 173.411 26.459C173.882 26.1725 174.211 25.9147 174.397 25.6855L174.482 25.5352H176.7C176.657 25.6426 176.611 25.7536 176.561 25.8682C176.468 26.0329 176.293 26.2871 176.036 26.6309C175.757 26.9961 175.432 27.3219 175.061 27.6084C174.704 27.8877 174.179 28.1419 173.486 28.3711C172.829 28.6003 172.072 28.7148 171.215 28.7148C169.436 28.7148 167.994 28.2064 166.887 27.1895C165.765 26.1725 165.205 24.8118 165.205 23.1074C165.205 21.4173 165.762 20.0602 166.876 19.0361C167.983 18.012 169.393 17.5 171.108 17.5C172.807 17.5 174.218 18.012 175.339 19.0361C176.446 20.0602 177 21.4173 177 23.1074ZM173.957 20.2822C173.243 19.6019 172.293 19.2617 171.108 19.2617C169.908 19.2617 168.958 19.6019 168.258 20.2822C167.551 20.9626 167.197 21.6322 167.197 22.291H175.007C175.007 21.6322 174.657 20.9626 173.957 20.2822Z" stroke="#4C4A5D" stroke-width="0.197857"/>
<path fill-rule="evenodd" clip-rule="evenodd" d="M55.0644 25.1479L54.1341 26.4932C54.1341 26.4932 53.9274 25.9758 53.7206 25.5619C53.5139 25.1479 53.2038 24.734 52.8937 24.2166C52.5836 23.6992 52.1701 22.9749 51.86 22.4575C51.5499 21.9401 51.3431 21.5262 51.2398 21.0088C51.1364 20.4914 51.033 19.6636 50.9297 18.6288C50.8263 17.594 50.7229 16.2487 50.6195 15.007C50.5162 13.7653 50.3094 12.5235 49.9993 11.0748C49.7926 9.62609 49.3791 8.0739 49.069 6.72867C48.7589 5.38344 48.4488 4.24517 48.0353 3.41734C47.7252 2.58951 47.3117 1.86516 47.0016 1.45124C46.6915 1.03732 46.4848 0.933844 46.278 1.03732C46.0713 1.03732 45.9679 1.24428 45.8645 1.6582C45.7612 2.07211 45.6578 2.79647 45.6578 3.72778C45.6578 4.65909 45.6578 6.00432 45.8645 7.34955C46.0713 8.69477 46.3814 10.247 46.6915 11.7991C47.105 13.3513 47.5185 14.8 48.0353 16.0418C48.5522 17.2835 48.9656 18.3183 49.2757 18.9392C49.4825 19.5601 49.4825 19.6636 49.4825 21.1123C49.4825 22.561 49.4825 25.4584 49.3791 27.7349C49.2757 30.0115 49.1724 31.5637 48.8623 33.3228C48.5522 35.0819 48.0353 37.048 47.6218 38.6002C47.105 40.2559 46.6915 41.6011 46.3814 42.3255C46.1747 43.0498 46.1747 43.2568 46.3814 43.6707C46.5881 44.0846 47.0016 44.602 47.2084 44.809C47.4151 45.1194 47.5185 45.1194 47.8286 44.2916C48.1387 43.5672 48.7589 42.015 49.2757 40.5663C49.896 39.1176 50.4128 37.6689 51.1364 36.2202C51.86 34.7715 52.5836 33.2193 53.3072 32.081C54.0307 30.8393 54.5476 29.908 54.8577 29.4941C55.1678 29.0802 55.2712 29.0802 55.3745 29.1836C55.4779 29.2871 55.5813 29.4941 55.8914 29.908C56.2015 30.3219 56.615 30.8393 57.2352 31.4602C57.8554 32.081 58.4756 32.8054 59.7161 33.8402C60.9565 34.875 62.7138 36.3237 64.2643 37.3585C65.8149 38.3933 67.0553 39.1176 68.6059 39.7385C70.1564 40.3594 72.1204 40.9802 74.0844 41.3942C76.0485 41.8081 78.1159 41.9116 79.7698 41.9116C81.4237 41.9116 82.5608 41.7046 83.6978 41.3942C84.8349 41.0837 86.0753 40.7733 87.4191 40.0489C88.7629 39.4281 90.1068 38.2898 91.6573 37.462C109.333 27.9419 107.783 33.1158 126.803 39.635C134.969 42.429 143.135 44.0846 151.612 42.5324C153.369 42.222 153.472 42.1185 153.472 42.015C153.472 41.9116 153.472 41.8081 153.369 41.4976C153.266 41.1872 152.955 40.6698 152.852 40.3594C152.645 40.0489 152.645 39.9455 149.648 40.1524C146.753 40.4629 144.893 40.7733 139.724 40.2559C134.452 39.842 129.801 38.2898 125.666 36.3237C92.8977 21.5262 100.547 38.0828 77.8058 39.2211C75.7384 39.3246 74.0845 39.2211 72.0171 38.7037C69.9497 38.1863 67.5722 37.255 65.7115 36.3237C63.8509 35.3924 62.3003 34.2541 60.9565 33.1158C59.5093 31.9776 58.1655 30.7358 57.4419 29.908C56.615 29.0802 56.3049 28.7697 56.2015 28.4593C56.0981 28.2523 56.0981 28.0454 56.8217 26.8036C57.6487 25.5619 59.1992 23.2853 61.2666 20.9053C63.2306 18.5253 65.7115 16.0418 67.7789 14.1792C69.8463 12.3165 71.6036 10.9713 73.4642 9.62609C75.2215 8.38434 80.2866 4.86605 81.1136 4.1417C81.9405 3.41734 81.7338 3.21038 81.4237 2.79647C81.1136 2.38255 80.5967 1.86516 80.39 1.6582C80.0799 1.45124 79.9765 1.55472 78.7361 2.38255C77.4957 3.21038 72.0171 7.14259 69.8463 8.90173C67.6755 10.6609 65.7115 12.5235 63.8509 14.4896C61.9902 16.4557 60.1296 18.4218 58.579 20.3879C57.0285 22.354 55.0644 25.1479 55.0644 25.1479ZM51.1364 24.0097C51.1364 24.734 51.1364 26.0793 51.1364 27.114C51.1364 28.1488 51.1364 29.3906 51.1364 29.3906L51.1482 31.25L52.6869 28.8732L53.3072 27.7349C53.3072 27.7349 53.5139 27.321 53.4105 27.114C53.4105 27.114 52.5836 25.5619 52.3768 25.1479C52.1701 24.734 51.1364 23.1818 51.1364 23.1818C51.1364 23.1818 51.1364 23.2853 51.1364 24.0097ZM49.1724 15.3174C49.1724 14.6966 49.069 13.3513 48.9656 12.2131C48.8623 11.0748 48.6555 10.1435 48.4488 9.21217C48.242 8.28086 48.1387 7.45303 47.9319 6.72867C47.7252 5.90084 47.5185 5.17649 47.4151 4.86605C47.3117 4.45213 47.2084 4.45213 47.2084 4.76257C47.2084 5.07301 47.2084 5.69388 47.3117 6.72867C47.4151 7.76346 47.5185 9.10869 47.7252 10.247C47.9319 11.3852 48.1387 12.3165 48.3454 13.0409C48.5522 13.7653 48.6555 14.2826 48.7589 14.6966C48.8623 15.1105 48.9656 15.4209 49.069 15.6279C49.1724 15.8348 49.2757 15.9383 49.2757 15.3174H49.1724Z" stroke="#4C4A5D" stroke-width="0.197857"/>
</svg>
