<svg width="42" height="42" viewBox="0 0 42 42" fill="none" xmlns="http://www.w3.org/2000/svg">
<g filter="url(#filter0_ddddd_12_35)">
<rect x="5" y="1" width="32" height="32" rx="16" fill="white"/>
<rect x="5.5" y="1.5" width="31" height="31" rx="15.5" stroke="#333333"/>
<path fill-rule="evenodd" clip-rule="evenodd" d="M14 17.0004C14 16.5644 14.3134 16.2109 14.7 16.2109H27.3C27.6866 16.2109 28 16.5644 28 17.0004C28 17.4364 27.6866 17.7899 27.3 17.7899H14.7C14.3134 17.7899 14 17.4364 14 17.0004Z" fill="#333333"/>
<path fill-rule="evenodd" clip-rule="evenodd" d="M14 12.7895C14 12.3535 14.3134 12 14.7 12H27.3C27.6866 12 28 12.3535 28 12.7895C28 13.2255 27.6866 13.5789 27.3 13.5789H14.7C14.3134 13.5789 14 13.2255 14 12.7895Z" fill="#333333"/>
<path fill-rule="evenodd" clip-rule="evenodd" d="M14 21.2113C14 20.7753 14.3134 20.4219 14.7 20.4219H27.3C27.6866 20.4219 28 20.7753 28 21.2113C28 21.6474 27.6866 22.0008 27.3 22.0008H14.7C14.3134 22.0008 14 21.6474 14 21.2113Z" fill="#333333"/>
</g>
<defs>
<filter id="filter0_ddddd_12_35" x="0" y="0" width="42" height="42" filterUnits="userSpaceOnUse" color-interpolation-filters="sRGB">
<feFlood flood-opacity="0" result="BackgroundImageFix"/>
<feColorMatrix in="SourceAlpha" type="matrix" values="0 0 0 0 0 0 0 0 0 0 0 0 0 0 0 0 0 0 127 0" result="hardAlpha"/>
<feOffset/>
<feColorMatrix type="matrix" values="0 0 0 0 0 0 0 0 0 0 0 0 0 0 0 0 0 0 0.04 0"/>
<feBlend mode="normal" in2="BackgroundImageFix" result="effect1_dropShadow_12_35"/>
<feColorMatrix in="SourceAlpha" type="matrix" values="0 0 0 0 0 0 0 0 0 0 0 0 0 0 0 0 0 0 127 0" result="hardAlpha"/>
<feOffset dy="1"/>
<feGaussianBlur stdDeviation="1"/>
<feColorMatrix type="matrix" values="0 0 0 0 0 0 0 0 0 0 0 0 0 0 0 0 0 0 0.04 0"/>
<feBlend mode="normal" in2="effect1_dropShadow_12_35" result="effect2_dropShadow_12_35"/>
<feColorMatrix in="SourceAlpha" type="matrix" values="0 0 0 0 0 0 0 0 0 0 0 0 0 0 0 0 0 0 127 0" result="hardAlpha"/>
<feOffset dy="3"/>
<feGaussianBlur stdDeviation="1.5"/>
<feColorMatrix type="matrix" values="0 0 0 0 0 0 0 0 0 0 0 0 0 0 0 0 0 0 0.04 0"/>
<feBlend mode="normal" in2="effect2_dropShadow_12_35" result="effect3_dropShadow_12_35"/>
<feColorMatrix in="SourceAlpha" type="matrix" values="0 0 0 0 0 0 0 0 0 0 0 0 0 0 0 0 0 0 127 0" result="hardAlpha"/>
<feOffset dy="7"/>
<feGaussianBlur stdDeviation="2"/>
<feColorMatrix type="matrix" values="0 0 0 0 0 0 0 0 0 0 0 0 0 0 0 0 0 0 0.02 0"/>
<feBlend mode="normal" in2="effect3_dropShadow_12_35" result="effect4_dropShadow_12_35"/>
<feColorMatrix in="SourceAlpha" type="matrix" values="0 0 0 0 0 0 0 0 0 0 0 0 0 0 0 0 0 0 127 0" result="hardAlpha"/>
<feOffset dy="13"/>
<feGaussianBlur stdDeviation="2.5"/>
<feColorMatrix type="matrix" values="0 0 0 0 0 0 0 0 0 0 0 0 0 0 0 0 0 0 0.01 0"/>
<feBlend mode="normal" in2="effect4_dropShadow_12_35" result="effect5_dropShadow_12_35"/>
<feBlend mode="normal" in="SourceGraphic" in2="effect5_dropShadow_12_35" result="shape"/>
</filter>
</defs>
</svg>
