<svg width="33" height="33" viewBox="0 0 33 33" fill="none" xmlns="http://www.w3.org/2000/svg">
<rect x="0.5" y="1.5" width="31" height="31" rx="15.5" fill="white"/>
<rect x="0.5" y="1.5" width="31" height="31" rx="15.5" stroke="#333333"/>
<path d="M15.9989 25C16.9326 25 17.7179 24.3608 17.9383 23.4949C18.0064 23.2273 17.7761 23 17.5 23H14.5003C14.2241 23 13.9938 23.2275 14.062 23.4952C14.2827 24.3605 15.0667 25 15.9996 25H15.9989Z" fill="#333333"/>
<path d="M21.3651 19.7454C21.1098 19.5396 20.9632 19.2412 20.9632 18.9272V14.7781C20.9632 12.36 19.1966 10.3548 16.8742 9.94676C16.8742 9.94676 15.8079 9.94818 15.1247 9.94908C15.4463 9.94908 16.8742 9.94676 15.1247 9.94908C15.8079 9.94818 16.8742 9.94676 16.8742 9.94676C15.1247 9.94918 16.552 9.94676 16.8742 9.94676C16.8742 9.94676 15.8079 9.94818 15.1247 9.94908C12.8066 10.3615 11.0472 12.3643 11.0472 14.7781V18.9256C11.0472 19.2405 10.8997 19.5398 10.643 19.7455L9.23981 20.8707C9.08753 20.9928 9 21.1704 9 21.3572C9 21.7122 9.30993 22 9.69224 22H22.307C22.6897 22 23 21.7119 23 21.3565C23 21.1701 22.9129 20.9928 22.7613 20.8706L21.3651 19.7454ZM22.4157 21.3637C22.4157 21.3958 22.3877 21.4218 22.3532 21.4218H9.6443C9.61025 21.4218 9.58265 21.3961 9.58265 21.3645C9.58265 21.3479 9.59045 21.332 9.60401 21.3212L11.2257 20.0208C11.4823 19.8151 11.6299 19.5158 11.6299 19.2009V14.7776C11.6299 12.3877 13.5923 10.4437 16.0049 10.4437C18.417 10.4437 20.38 12.3877 20.38 14.7776V19.2016C20.38 19.5155 20.5265 19.8139 20.7817 20.0196L22.3942 21.3198C22.4079 21.3309 22.4157 21.3469 22.4157 21.3637Z" fill="#333333"/>
<path d="M22.4157 21.3637C22.4157 21.3958 22.3877 21.4218 22.3532 21.4218H9.6443C9.61025 21.4218 9.58265 21.3961 9.58265 21.3645C9.58265 21.3479 9.59045 21.332 9.60401 21.3212L11.2257 20.0208C11.4823 19.8151 11.6299 19.5158 11.6299 19.2009V14.7776C11.6299 12.3877 13.5923 10.4437 16.0049 10.4437C18.417 10.4437 20.38 12.3877 20.38 14.7776V19.2016C20.38 19.5155 20.5265 19.8139 20.7817 20.0196L22.3942 21.3198C22.4079 21.3309 22.4157 21.3469 22.4157 21.3637Z" fill="#333333"/>
<path d="M17.1667 10.0833C17.1667 10.6816 16.6443 11.1667 16 11.1667C15.3557 11.1667 14.8333 10.6816 14.8333 10.0833C14.8333 9.48502 15.3557 9 16 9C16.6443 9 17.1667 9.48502 17.1667 10.0833Z" fill="#333333"/>
<circle cx="27" cy="6" r="5.5" fill="#D53737" stroke="white"/>
</svg>
